<?xml version="1.0" encoding="UTF-8" standalone="no"?>
<svg
   width="110mm"
   height="110mm"
   viewBox="0 0 110 110"
   version="1.1"
   id="svg5"
   xml:space="preserve"
   inkscape:version="1.2 (dc2aedaf03, 2022-05-15)"
   sodipodi:docname="g.svg"
   xmlns:inkscape="http://www.inkscape.org/namespaces/inkscape"
   xmlns:sodipodi="http://sodipodi.sourceforge.net/DTD/sodipodi-0.dtd"
   xmlns="http://www.w3.org/2000/svg"
   xmlns:svg="http://www.w3.org/2000/svg"><sodipodi:namedview
     id="namedview7"
     pagecolor="#505050"
     bordercolor="#eeeeee"
     borderopacity="1"
     inkscape:showpageshadow="0"
     inkscape:pageopacity="0"
     inkscape:pagecheckerboard="0"
     inkscape:deskcolor="#505050"
     inkscape:document-units="px"
     showgrid="true"
     inkscape:zoom="0.99597359"
     inkscape:cx="90.363842"
     inkscape:cy="227.41567"
     inkscape:window-width="1366"
     inkscape:window-height="732"
     inkscape:window-x="0"
     inkscape:window-y="0"
     inkscape:window-maximized="1"
     inkscape:current-layer="layer1"><inkscape:grid
       type="xygrid"
       id="grid184"
       empcolor="#ffffff"
       empopacity="0.34117647"
       color="#ffffff"
       opacity="0.14901961"
       originx="0"
       originy="0" /></sodipodi:namedview><defs
     id="defs2" /><g
     inkscape:label="Capa 1"
     inkscape:groupmode="layer"
     id="layer1"><path
       style="fill:#ffffff;stroke-width:0.739834"
       d="M 19.636352,75.425526 V 63.538559 l 9.177627,11.667048 c 5.047714,6.416855 9.177628,11.765962 9.177628,11.886924 0,0.120856 -4.129914,0.219972 -9.177628,0.219972 h -9.177627 z m 61.94894,0.197544 c 5.038022,-6.429163 9.237766,-11.689412 9.332728,-11.689412 0.09479,0 0.17273,5.260249 0.17273,11.689412 V 87.312447 H 81.758046 72.425313 Z M 37.167615,61.631825 19.636352,39.291021 V 27.191749 c 0,0 0.207399,-0.700479 0,-0.318858 10.790732,-0.381621 17.860643,10.968421 17.860643,10.968421 L 55.357633,60.590141 73.224146,37.845089 c 0,0 4.82794,-10.175777 17.866518,-10.964638 v 0.326567 12.10699 L 73.550408,61.643344 C 63.903263,73.924463 55.715087,83.97263 55.354514,83.97263 c -0.360593,0 -8.544689,-10.053345 -18.186899,-22.340805 z"
       id="path304"
       sodipodi:nodetypes="ccsssccssscccsscccccccccsss" /><path
       style="fill:#16694d;fill-opacity:1;stroke:#16694d;stroke-width:0.30000001;stroke-linecap:round;stroke-linejoin:round;stroke-opacity:1;stroke-dasharray:none"
       d="m 33.874913,57.637978 12.968924,-7.925554 8.645948,11.095775 v 23.776667 z"
       id="path458"
       sodipodi:nodetypes="ccccc" /><path
       style="fill:#16694d;fill-opacity:1;stroke:#16694d;stroke-width:0.30000001;stroke-linecap:round;stroke-linejoin:round;stroke-opacity:1;stroke-dasharray:none"
       d="M 76.468926,57.977645 63.500002,50.052091 54.854056,61.147865 v 23.776666 z"
       id="path458-3"
       sodipodi:nodetypes="ccccc" /><path
       style="fill:#16694d;fill-opacity:1;stroke:none;stroke-width:0;stroke-linecap:round;stroke-linejoin:round"
       d="M 19.634526,63.412311 V 87.302198 H 38.45218 Z"
       id="path581"
       sodipodi:nodetypes="cccc" /></g></svg>
